<svg xmlns="http://www.w3.org/2000/svg" version="1.1" xmlns:xlink="http://www.w3.org/1999/xlink" xmlns:svgjs="http://svgjs.com/svgjs" width="512" height="512" x="0" y="0" viewBox="0 0 32 32" style="enable-background:new 0 0 512 512" xml:space="preserve" class=""><g><circle cx="14" cy="8" r="7" fill="#000000" data-original="#000000" class=""></circle><path d="m23 15a8 8 0 1 0 8 8 8 8 0 0 0 -8-8zm3 9h-2v2a1 1 0 0 1 -2 0v-2h-2a1 1 0 0 1 0-2h2v-2a1 1 0 0 1 2 0v2h2a1 1 0 0 1 0 2z" fill="#000000" data-original="#000000" class=""></path><path d="m13 23a10 10 0 0 1 2.07-6.07 9.45 9.45 0 0 1 -1.07.07 9 9 0 0 1 -7.3-3.75 13 13 0 0 0 -5.7 10.75v2a5 5 0 0 0 5 5h11a10 10 0 0 1 -4-8z" fill="#000000" data-original="#000000" class=""></path></g></svg>