<svg xmlns="http://www.w3.org/2000/svg" version="1.1" xmlns:xlink="http://www.w3.org/1999/xlink" xmlns:svgjs="http://svgjs.com/svgjs" width="512" height="512" x="0" y="0" viewBox="0 0 512 512" style="enable-background:new 0 0 512 512" xml:space="preserve" class=""><g><path d="m249.664062 272.464844 36.335938 23.226562 30-31.902344 30 31.902344 35.871094-24.085937-50.871094-93.914063v-177.691406h-90v90h60v87.691406zm0 0" fill="#000000" data-original="#000000" class=""></path><path d="m201.589844 298.238281-35.589844-58.238281-166 272h86.886719zm0 0" fill="#000000" data-original="#000000" class=""></path><path d="m512 512-115.796875-213.929688-54.011719 36.238282-26.191406-28.097656-26.191406 28.097656-54.601563-35.152344-114.207031 212.84375zm0 0" fill="#000000" data-original="#000000" class=""></path><path d="m241 150v-30h-30v-90h-120l60 60-60 60zm0 0" fill="#000000" data-original="#000000" class=""></path></g></svg>